<?xml version="1.0" encoding="UTF-8" standalone="no"?>
<!-- Created with Inkscape (http://www.inkscape.org/) -->
<svg xmlns:inkscape="http://www.inkscape.org/namespaces/inkscape" xmlns:rdf="http://www.w3.org/1999/02/22-rdf-syntax-ns#" xmlns="http://www.w3.org/2000/svg" xmlns:xlink="http://www.w3.org/1999/xlink" xmlns:ns1="http://sozi.baierouge.fr" xmlns:cc="http://creativecommons.org/ns#" xmlns:sodipodi="http://sodipodi.sourceforge.net/DTD/sodipodi-0.dtd" xmlns:dc="http://purl.org/dc/elements/1.1/" id="svg2" viewBox="0 0 263 241.7" version="1.1" inkscape:version="0.91 r13725">
  <title id="title4098">Chef Hat</title>
  <path id="path3862-1-2" style="block-progression:tb;text-indent:0;color:#000000;text-transform:none;fill:#dfdfdf" d="m89.307 116.89a2.719 4.0004 0 0 0 -2.5986 3.9688c-0.07326 0.0597-0.09454 0.13298-0.44337 0.21875-1.4418 0.35455-4.1811-1.2345-4.7785-2.3438-0.0061-0.0109-0.03749-0.0396-0.04926-0.0625a2.719 4.0004 0 0 0 -2.3523 -1.625 2.719 4.0004 0 0 0 -0.48031 0.0937c-0.01667-0.002-0.03261 0.001-0.04926 0-1.0341-0.0576-2.0364 0.97047-2.7095 2.7812-0.67306 1.8108-0.88656 4.3819-0.936 7-0.409 27.091 3.5216 47.032-0.13547 86.906 0.10776 2.5198 0.42686 5.3087 1.0222 7.5938s1.5401 4.0382 2.5617 4.75c1.0216 0.71177 2.1064 0.37223 2.9558-0.90625 0.84937-1.2785 1.4584-3.4802 1.638-6 1.154-16.238 1.5416-29.494 1.5395-40.906-0.33319-0.36397-0.64077-0.86108-0.89905-1.4688-0.60904-1.4329-0.97477-3.259-1.1823-5.2188-0.24733-2.3354-0.28742-4.6647-0.14779-6.875-0.07295-0.46918-0.13285-0.94756-0.18474-1.4375-0.29756-2.8097-0.32627-5.6661-0.06158-8.25-0.000394-0.008 0.000395-0.024 0-0.0312-0.01447-0.21953-0.0212-0.39215-0.02463-0.53125-0.0086-0.35361 0.0059-0.47579 0.01231-0.65625-0.02672-0.12821-0.09977-0.3942-0.28326-0.875-1.9315-5.061-2.2767-11.562-2.1306-16.937 0.08667-3.1901 0.33431-6.1458 0.57884-8.75 2.0886 1.671 4.574 2.2547 7.0077 1.6562 1.332-0.32752 2.5484-1.0689 3.5223-2.4688 0.97389-1.3998 1.5734-3.5921 1.4409-5.6562a2.719 4.0004 0 0 0 -2.8326 -3.9688z"/>
  <g id="g3899" transform="translate(18.5 -216.8)">
    <path id="path3862" style="stroke-linejoin:round;stroke:#aaaaaa;stroke-linecap:round;stroke-width:8;fill:none" d="m172.67 312.2c0.0139 0.20872 0.0218 0.41764 0.0218 0.6266 0 14.188-33.772 23.378-75.431 20.527-29.659-2.03-55.323-9.62-67.644-18.94"/>
    <path id="path3896" style="stroke-linejoin:round;stroke:#aaaaaa;stroke-linecap:round;stroke-width:8;fill:none" d="m60.073 333.41c16.615 5.0576 24.066 10.287 72.897 1.2088"/>
  </g>
  <path id="path3862-1" style="stroke-linejoin:round;stroke:#aaaaaa;stroke-linecap:round;stroke-width:8;fill:none" d="m207.14 101.66c0.0207 0.0164 0.0418 0.0329 0.0635 0.0494 1.4722 1.1166 4.7572 1.8117 7.3372 1.5526 1.8371-0.1845 2.8214-0.80304 2.7046-1.5471"/>
  <path id="rect3784" style="stroke-linejoin:round;stroke:#000000;stroke-linecap:round;stroke-width:3;fill:none" d="m222.24 97.194c-9.3773 47.667-9.0119 95.335 5.2628 143-62-5.19-124-8.46-186 0.01 8.299-47.67 12.302-95.34 4.636-143"/>
  <path id="path3889" style="stroke-linejoin:round;stroke:#dfdfdf;stroke-linecap:round;stroke-width:8;fill:none" d="m6.1937 61.197c9.0248 11.9 13.057 29.589 37.162 24"/>
  <path id="path3894" style="stroke-linejoin:round;stroke:#dfdfdf;stroke-linecap:round;stroke-width:8;fill:none" d="m256.67 56.393c-4.2004 15.284-9.7455 32.375-49.296 35.629"/>
  <path id="path3780" style="stroke-linejoin:round;stroke:#000000;stroke-linecap:round;stroke-width:3;fill:none" d="m189.17 92.327c0.0143 0.20909 0.0224 0.41822 0.0224 0.62718 0 14.188-34.716 22.465-77.54 18.488-30.486-2.83-56.867-11.11-69.533-20.766m5.0984 4.5094c-0.40398 0.009-0.80931 0.01354-1.2159 0.01354-24.577 0-44.5-16.565-44.5-37s19.923-37 44.5-37c9.1645 0 17.682 2.3034 24.761 6.252m-9.622 17.366c-0.0134-0.34199-0.0211-0.68499-0.0211-1.029 0.001-23.354 32.592-42.286 72.793-42.286 28.626 0 53.393 9.5982 65.284 23.557m-15.614 2.061c7.2091-2.5102 15.329-3.9211 23.917-3.9211 29.823 0 54 17.013 54 38 0 20.678-23.47 37.498-52.686 37.989"/>
  <path id="path3903" style="block-progression:tb;text-indent:0;color:#000000;text-transform:none;fill:#aaaaaa" d="m56.46 113.47c-2.095 0.0327-4.0028 1.9681-4.0046 4.0625 3.5782 24.667 4.178 48.6 0.97905 73.266 0.17615 4.8728-2.0354 9.9155-1.9657 14.958 0.0697 5.0424-0.23708 10.071-1.2307 11.995-1.4057 2.7215-1.2296 4.8997-1.487 6.7812-0.25735 1.8815-0.80088 3.0346-0.92711 3.1562-1.5609 1.4614-1.6482 4.204-0.18182 5.7119 1.4664 1.5078 4.2094 1.4961 5.7129-0.0244 0.31467-0.3032 0.60528-0.62079 0.85923-0.9375 1.0272 0.70803 2.4065 0.88419 3.5968 0.45941s2.1617-1.4398 2.533-2.6469c0.0468-0.13555 0.11339-0.25639 0.16296-0.40625 3.2783-9.8974 5.1368-29.145 4.741-44.875-0.14089-5.6002-0.55602-9.9225-1.2833-13.125-0.36362-1.6012-0.73236-2.9168-1.5861-4.25-0.42685-0.6666-1.0144-1.3965-2.0925-1.9688-0.18867-0.10014-0.40153-0.17892-0.62087-0.25l0.28588-17.312c-3.3233-6.2184-2.54-15.182-1.5735-23.938 0.38513-3.4886-0.81992-6.7305 0.62201-9.2812 0.0625-0.11061 0.1273-0.20583 0.19266-0.3125-0.7278-0.68312-1.7259-1.0712-2.7324-1.0625z"/>
  <path id="path4068" style="block-progression:tb;text-indent:0;color:#000000;text-transform:none;fill:#aaaaaa" d="m212.16 111.28a4.0004 4.0004 0 0 0 -2.41 0.97 3.9459 4.0557 0.00024134 0 1 -0.0312 2.125c-3.9036 12.215-2.6134 25.49-2.25 37.438a2.3003 4.0004 0 0 0 -1.47 1.52c-0.0156 0.0342-0.0406 0.075-0.0625 0.125-0.81743 1.8743-1.2023 3.8679-1.3438 5.9375a3.9479 4.0578 0.00024134 0 1 -0.3125 0.0625c-0.27813 22.421 2.1712 44.859 7.625 67.281a4.002 4.002 0 1 0 7.7812 -1.875c-8.82-36.27-9.61-72.52-3.4-108.86a4.0004 4.0004 0 0 0 -4.125 -4.7188z"/>
  <metadata>
    <rdf:RDF>
      <cc:Work>
        <dc:format>image/svg+xml</dc:format>
        <dc:type rdf:resource="http://purl.org/dc/dcmitype/StillImage"/>
        <cc:license rdf:resource="http://creativecommons.org/licenses/publicdomain/"/>
        <dc:publisher>
          <cc:Agent rdf:about="http://openclipart.org/">
            <dc:title>Openclipart</dc:title>
          </cc:Agent>
        </dc:publisher>
      </cc:Work>
      <cc:License rdf:about="http://creativecommons.org/licenses/publicdomain/">
        <cc:permits rdf:resource="http://creativecommons.org/ns#Reproduction"/>
        <cc:permits rdf:resource="http://creativecommons.org/ns#Distribution"/>
        <cc:permits rdf:resource="http://creativecommons.org/ns#DerivativeWorks"/>
      </cc:License>
    </rdf:RDF>
  </metadata>
</svg>
